<svg width="51" height="50" viewBox="0 0 51 50" fill="none" xmlns="http://www.w3.org/2000/svg">
<path d="M26.1599 6.24597C26.1776 6.24601 26.1968 6.24605 26.2174 6.2461L26.4386 6.24679C29.0067 6.25623 42.0227 6.35057 45.532 7.29404C47.6834 7.87106 49.3774 9.57154 49.9524 11.7301C50.2689 12.916 50.4896 14.4923 50.6433 16.1134L50.6732 16.4381C50.6974 16.709 50.7197 16.9805 50.7404 17.2511L50.7644 17.5751C50.9698 20.4317 50.9938 23.1049 50.9966 23.6897L50.9969 23.7686C50.9969 23.7751 50.9969 23.7856 50.9969 23.7856V23.8299C50.9969 23.8299 50.9969 23.8405 50.9969 23.8469L50.9966 23.9258C50.9937 24.5328 50.968 27.3887 50.7404 30.3647L50.7148 30.6897L50.6875 31.015C50.5327 32.8043 50.3006 34.5811 49.9524 35.8855C49.3774 38.044 47.6834 39.7449 45.532 40.3215C41.9057 41.2968 28.1284 41.3651 26.2174 41.3699L26.0702 41.3701C26.0581 41.3702 26.0475 41.3702 26.0384 41.3702L25.9784 41.3702C25.9784 41.3702 25.9646 41.3702 25.9554 41.3702L25.7764 41.3699C24.8107 41.3674 20.8143 41.3488 16.6291 41.2051L16.094 41.186C16.0047 41.1828 15.9154 41.1794 15.8261 41.176L15.2904 41.1548L14.7559 41.1322C11.2887 40.98 7.98288 40.7305 6.46216 40.3215C4.31084 39.7449 2.61679 38.044 2.04181 35.8855C1.69348 34.5811 1.46126 32.8043 1.30644 31.015L1.27914 30.6897L1.25349 30.3647C1.03407 27.4969 1.00222 24.7407 0.997599 24.0009L0.997046 23.895C0.997007 23.8854 0.996975 23.8767 0.996948 23.8687V23.7469C0.996975 23.7389 0.997007 23.7301 0.997046 23.7206L0.997599 23.6147C1.00179 22.9447 1.02831 20.6209 1.19626 18.0581L1.218 17.7366C1.22175 17.6829 1.22557 17.629 1.22944 17.5751L1.25349 17.2511C1.27419 16.9805 1.29656 16.709 1.32073 16.4381L1.35061 16.1134C1.50444 14.4923 1.72514 12.916 2.04181 11.7301C2.61679 9.57154 4.31084 7.87106 6.46216 7.29404C7.98288 6.8852 11.2887 6.63582 14.7559 6.48369L15.2904 6.46104L15.8261 6.43988C15.9154 6.43648 16.0047 6.43313 16.094 6.42984L16.6291 6.41081C20.5471 6.27631 24.2997 6.25141 25.5552 6.24679L25.7764 6.2461C25.797 6.24605 25.8162 6.24601 25.8339 6.24597H26.1599ZM20.997 16.281V31.3346L33.9869 23.8082L20.997 16.281Z" fill="black"/>
</svg>
